<?xml version="1.0" encoding="iso-8859-1"?>
<!-- Generator: Adobe Illustrator 19.0.0, SVG Export Plug-In . SVG Version: 6.00 Build 0)  -->
<svg version="1.1" id="Laag_1" xmlns="http://www.w3.org/2000/svg" xmlns:xlink="http://www.w3.org/1999/xlink" x="0px" y="0px"
	 viewBox="0 0 226.77 226.77" style="enable-background:new 0 0 226.77 226.77;" xml:space="preserve">
<g id="XMLID_3_">
	<path id="XMLID_4_" style="fill:#808285;" d="M113.031,183.144c-0.946,0-1.122,0.66-1.122,5.259s0.176,5.259,1.122,5.259
		c0.946,0,1.123-0.66,1.123-5.259S113.977,183.144,113.031,183.144z"/>
	<path id="XMLID_32_" style="fill:#808285;" d="M119.147,156.744c-0.945,0-1.121,0.66-1.121,5.259s0.176,5.259,1.121,5.259
		c0.947,0,1.123-0.66,1.123-5.259S120.094,156.744,119.147,156.744z"/>
	<path id="XMLID_33_" style="fill:#808285;" d="M95.377,136.703h-0.792v3.586h0.77c0.968,0,1.408-0.66,1.408-1.693
		C96.763,137.539,96.389,136.703,95.377,136.703z"/>
	<polygon id="XMLID_34_" style="fill:#808285;" points="107.983,131.18 106.971,137.627 108.973,137.627 108.027,131.18 	"/>
	<path id="XMLID_35_" style="fill:#808285;" d="M96.521,132.435c0-1.013-0.44-1.519-1.342-1.519h-0.594v3.015h0.66
		C95.817,133.931,96.521,133.578,96.521,132.435z"/>
	<path id="XMLID_36_" style="fill:#808285;" d="M124.889,183.716h-0.484v3.455h0.484c0.814,0,1.496-0.154,1.496-1.738
		C126.385,184.355,126.011,183.716,124.889,183.716z"/>
	<path id="XMLID_39_" style="fill:#808285;" d="M113.385,4.75C53.388,4.75,4.75,53.388,4.75,113.385
		c0,59.997,48.638,108.635,108.635,108.635S222.02,173.382,222.02,113.385C222.02,53.388,173.382,4.75,113.385,4.75z
		 M101.296,138.926c0,3.146-1.826,4.532-4.533,4.532h-6.579v-15.71h6.337c2.75,0,4.401,1.298,4.401,3.895
		c0,2.464-1.518,3.322-2.508,3.542v0.044C99.293,135.316,101.296,135.757,101.296,138.926z M107.004,184.244h-2.992v12.014h-4.401
		v-12.014h-2.992v-3.696h10.385V184.244z M102.735,157.844v-3.696h10.385v3.696h-2.992v12.014h-4.401v-12.014H102.735z
		 M109.941,143.458l-0.484-2.398h-2.948l-0.44,2.398h-4.532l3.718-15.71h5.523l3.696,15.71H109.941z M113.031,196.565
		c-5.655,0-5.655-3.146-5.655-8.163c0-4.862,0-8.163,5.655-8.163s5.655,3.301,5.655,8.163
		C118.686,193.419,118.686,196.565,113.031,196.565z M113.492,162.003c0-4.862,0-8.163,5.654-8.163c5.655,0,5.655,3.301,5.655,8.163
		c0,5.017,0,8.163-5.655,8.163C113.492,170.166,113.492,167.02,113.492,162.003z M120.501,130.344c-1.145,0-1.188,0.793-1.188,5.26
		c0,4.598,0.11,5.258,1.188,5.258c0.704,0,0.989-0.703,0.989-2.662v-1.21h4.27v0.989c0,3.676-1.475,5.787-5.325,5.787
		c-5.655,0-5.655-3.146-5.655-8.162c0-4.863,0-8.164,5.655-8.164c4.687,0,5.237,2.531,5.237,4.973v1.145h-4.27v-1.276
		C121.403,131.598,121.403,130.344,120.501,130.344z M125.747,190.339h-1.343v5.919h-4.4v-15.71h5.831
		c3.366,0,5.083,1.43,5.083,4.885C130.918,188.931,128.717,190.339,125.747,190.339z M134.274,143.458l-2.244-5.215l-0.639,1.21
		v4.005h-4.4v-15.71h4.4v5.984h0.044l2.53-5.984h4.775l-3.873,6.908l4.356,8.802H134.274z M186.841,160.723
		c-4.104,0-7.961-1.598-10.863-4.5l-62.589-62.589L50.8,156.223c-2.902,2.902-6.76,4.5-10.863,4.5
		c-4.103,0-7.961-1.597-10.862-4.499c-2.902-2.901-4.5-6.76-4.5-10.864s1.598-7.962,4.5-10.864l72.132-72.132
		c0.387-0.497,0.802-0.966,1.238-1.402c2.898-2.899,6.756-4.497,10.862-4.497h0.166c4.105,0,7.963,1.597,10.863,4.497
		c0.437,0.437,0.852,0.907,1.239,1.404l72.131,72.131c5.99,5.99,5.99,15.736,0,21.726
		C194.803,159.125,190.945,160.723,186.841,160.723z"/>
	<path id="XMLID_49_" style="fill:#808285;" d="M118.906,68.109c-0.227-0.331-0.483-0.648-0.777-0.942v0
		c-1.307-1.307-3.027-1.947-4.741-1.926c-1.713-0.021-3.433,0.618-4.741,1.926v0c-0.294,0.294-0.55,0.611-0.777,0.942
		l-72.593,72.593c-2.573,2.573-2.573,6.744,0,9.317h0c2.573,2.573,6.744,2.573,9.317,0l68.794-68.794l68.794,68.794
		c2.573,2.573,6.744,2.573,9.316,0h0c2.573-2.573,2.573-6.744,0-9.317L118.906,68.109z"/>
</g>
</svg>
