<?xml version="1.0" encoding="utf-8"?>
<!-- Generator: Adobe Illustrator 16.0.0, SVG Export Plug-In . SVG Version: 6.00 Build 0)  -->
<!DOCTYPE svg PUBLIC "-//W3C//DTD SVG 1.1//EN" "http://www.w3.org/Graphics/SVG/1.1/DTD/svg11.dtd">
<svg version="1.1" id="Layer_1" xmlns="http://www.w3.org/2000/svg" xmlns:xlink="http://www.w3.org/1999/xlink" x="0px" y="0px"
	 width="563.232px" height="596.818px" viewBox="0 0 563.232 596.818" enable-background="new 0 0 563.232 596.818"
	 xml:space="preserve">
<path fill="#3F3D56" d="M2.368,474.727c8.688,10.293,18.083,19.967,28.12,28.949l379.58,1c10.036-8.982,19.433-18.656,28.12-28.949
	L2.368,474.727z"/>
<path fill="#2F2E41" d="M194.058,377.917v102.561h71.85V377.917c0.002-1.514-0.983-2.853-2.43-3.3
	c-0.333-0.109-0.681-0.164-1.03-0.16h-64.92c-1.913-0.004-3.467,1.544-3.47,3.457C194.058,377.915,194.058,377.916,194.058,377.917z
	 M222.097,413.157c0.04-4.236,3.505-7.639,7.741-7.6c4.181,0.039,7.561,3.419,7.6,7.6v11.899c-0.021,4.236-3.471,7.654-7.707,7.634
	c-4.207-0.02-7.613-3.426-7.634-7.634V413.157z"/>
<path fill="#3F3D56" d="M193.838,477.197v9.89c0.004,1.066,0.864,1.932,1.931,1.94h68.43c1.067-0.006,1.93-0.873,1.93-1.94v-9.89
	H193.838z"/>
<path fill="#3F3D56" d="M81.028,223.396v187.261c0.004,4.969,4.031,8.996,9,9h277.5c4.969-0.004,8.996-4.031,9-9V223.396
	c-0.012-4.964-4.036-8.983-9-8.989h-277.5C85.064,214.413,81.04,218.432,81.028,223.396z"/>
<path fill="#6C63FF" d="M87.538,225.726v182.62c0.005,2.655,2.155,4.806,4.81,4.811h272.87c2.655-0.005,4.806-2.155,4.811-4.811
	v-182.62c0-2.657-2.152-4.813-4.811-4.819H92.347C89.69,220.913,87.538,223.069,87.538,225.726z"/>
<path fill="#2F2E41" d="M143.177,491.357c0.563,0.705,1.418,1.114,2.32,1.109h162.34c1.65-0.002,2.985-1.341,2.983-2.99
	c0-0.205-0.021-0.409-0.063-0.609l-2.52-11.97c-0.213-0.992-0.912-1.809-1.86-2.17c-0.338-0.133-0.697-0.2-1.06-0.2H148.008
	c-0.362,0-0.722,0.067-1.06,0.2c-0.948,0.361-1.647,1.178-1.86,2.17l-2.52,11.97C142.386,489.747,142.61,490.661,143.177,491.357z"
	/>
<path fill="#FFFFFF" d="M148.008,477.027c-0.049,0-0.098,0.008-0.145,0.025c-0.161,0.056-0.284,0.188-0.327,0.353l-2.521,11.977
	c-0.027,0.141,0.01,0.286,0.102,0.396l0.011,0.014c0.088,0.115,0.227,0.181,0.371,0.176h162.34c0.144,0.002,0.28-0.063,0.37-0.175
	c0.097-0.108,0.136-0.256,0.106-0.397l-2.522-11.983c-0.038-0.159-0.151-0.289-0.304-0.349c-0.054-0.022-0.111-0.035-0.17-0.035
	H148.008z"/>
<path fill="#3F3D56" d="M101.121,246.063h255.323c0.562-0.013,1.006-0.477,0.993-1.038c-0.012-0.543-0.449-0.98-0.993-0.992H101.121
	c-0.561,0.012-1.005,0.477-0.992,1.037C100.14,245.614,100.578,246.052,101.121,246.063z"/>
<ellipse fill="#3F3D56" cx="339.064" cy="232.765" rx="5.95" ry="6.083"/>
<ellipse fill="#3F3D56" cx="318.509" cy="232.765" rx="5.95" ry="6.083"/>
<ellipse fill="#3F3D56" cx="297.952" cy="232.765" rx="5.951" ry="6.083"/>
<path fill="#3F3D56" d="M112.409,229.297c-0.003,0.604,0.485,1.097,1.09,1.1c0,0,0,0,0.001,0h14.6
	c0.61-0.014,1.094-0.521,1.079-1.131c-0.014-0.59-0.489-1.064-1.079-1.079h-14.6C112.892,228.194,112.406,228.69,112.409,229.297z"
	/>
<path fill="#3F3D56" d="M112.409,233.447c-0.003,0.604,0.485,1.097,1.09,1.1c0,0,0,0,0.001,0h14.6c0.61-0.014,1.094-0.52,1.08-1.13
	c-0.013-0.591-0.489-1.066-1.08-1.08h-14.6C112.892,232.344,112.406,232.84,112.409,233.447z"/>
<path fill="#3F3D56" d="M112.409,237.587c-0.003,0.606,0.483,1.103,1.091,1.11h14.6c0.61-0.015,1.094-0.521,1.079-1.131
	c-0.014-0.591-0.489-1.065-1.079-1.079h-14.6C112.894,236.489,112.407,236.981,112.409,237.587
	C112.409,237.587,112.409,237.587,112.409,237.587z"/>
<path fill="#3F3D56" d="M318.401,277.057H139.164c-4.902,0.006-8.875,3.979-8.881,8.882v87.236c0.005,4.903,3.979,8.876,8.881,8.882
	h179.237c4.903-0.006,8.876-3.979,8.882-8.882v-87.236C327.277,281.036,323.304,277.063,318.401,277.057z M325.283,285.939v25.451
	h-63v-32.333h56.118C322.2,279.061,325.278,282.14,325.283,285.939L325.283,285.939z M197.283,345.724V313.39h63v32.334H197.283z
	 M260.283,347.724v32.333h-63v-32.333H260.283z M195.283,345.724h-63V313.39h63V345.724z M197.283,311.39v-32.333h63v32.333H197.283
	z M262.283,313.39h63v32.334h-63V313.39z M139.164,279.057h56.119v32.333h-63v-25.451
	C132.287,282.14,135.365,279.061,139.164,279.057L139.164,279.057z M132.283,373.176v-25.451h63v32.333h-56.119
	C135.365,380.053,132.287,376.974,132.283,373.176z M318.401,380.057h-56.118v-32.333h63v25.451
	C325.279,376.974,322.2,380.053,318.401,380.057L318.401,380.057z"/>
<path fill="#FFFFFF" d="M219.674,299.206c-1.591-2.631-3.476-5.439-6.428-6.299c-3.418-0.994-6.93,0.981-9.908,2.932
	c-8.907,5.832-17.485,12.152-25.694,18.932l0.009,0.103l19.174-1.322c4.617-0.318,9.394-0.681,13.475-2.865
	c1.549-0.829,3.059-1.937,4.813-2.014c2.181-0.096,4.081,1.427,5.575,3.018c8.836,9.409,11.394,23.799,21.308,32.066
	C235.744,328.339,228.28,313.442,219.674,299.206z"/>
<path fill="#FFFFFF" d="M273.99,379.017c-0.978-1.234-1.377-1.523-2.341-2.769c-7.848-10.15-15.225-20.645-22.13-31.48
	c-4.69-7.36-9.148-14.861-13.374-22.504c-2.011-3.633-3.968-7.295-5.869-10.985c-1.475-2.861-2.917-5.739-4.327-8.635
	c-0.403-0.827-0.795-1.658-1.185-2.491c-0.918-1.958-1.819-3.926-2.787-5.857c-1-2.319-2.531-4.371-4.47-5.989
	c-0.922-0.701-2.023-1.125-3.177-1.223c-1.625,0.01-3.216,0.465-4.6,1.317c-10.471,5.505-20.244,12.245-29.111,20.076
	c-8.881,7.799-16.818,16.61-23.651,26.254c-0.209,0.299-0.704,0.014-0.493-0.287c0.831-1.175,1.679-2.337,2.542-3.486
	c10.741-14.285,23.911-26.569,38.907-36.292c2.523-1.635,5.094-3.193,7.712-4.675c1.319-0.747,2.645-1.485,3.992-2.177
	c1.292-0.758,2.741-1.206,4.234-1.313c5.137-0.079,7.797,5.738,9.624,9.653c0.574,1.231,1.155,2.46,1.743,3.685
	c2.223,4.648,4.531,9.255,6.925,13.818c1.478,2.817,2.986,5.619,4.528,8.403c4.799,8.672,9.899,17.168,15.302,25.488
	c7.156,11.021,14.255,20.758,22.408,31.064C274.617,378.899,274.217,379.306,273.99,379.017z"/>
<path fill="#FFFFFF" d="M180.112,305.604c-0.299-0.333-0.595-0.665-0.896-0.998c-2.369-2.62-4.911-5.21-8.164-6.712
	c-1.551-0.738-3.244-1.131-4.962-1.15c-1.773,0.049-3.521,0.43-5.152,1.124c-0.776,0.31-1.534,0.662-2.282,1.036
	c-0.854,0.43-1.691,0.888-2.526,1.35c-1.566,0.867-3.113,1.772-4.639,2.716c-3.037,1.876-5.978,3.896-8.824,6.059
	c-1.476,1.122-2.92,2.28-4.335,3.476c-1.315,1.11-2.604,2.251-3.867,3.421c-0.27,0.249-0.673-0.154-0.402-0.403
	c0.332-0.311,0.669-0.618,1.006-0.922c0.95-0.859,1.916-1.702,2.897-2.529c1.789-1.51,3.624-2.961,5.506-4.354
	c2.926-2.168,5.952-4.188,9.08-6.062c1.563-0.936,3.147-1.831,4.753-2.688c0.485-0.258,0.976-0.511,1.472-0.751
	c1.126-0.567,2.296-1.044,3.498-1.424c1.704-0.551,3.506-0.729,5.284-0.52c1.717,0.25,3.37,0.822,4.875,1.687
	c3.193,1.786,5.671,4.547,8.082,7.24C180.759,305.473,180.357,305.878,180.112,305.604z"/>
<path fill="#FFFFFF" d="M245.557,332.754l7.653-2.8l3.801-1.39c1.228-0.494,2.479-0.926,3.752-1.292
	c1.111-0.317,2.292-0.303,3.396,0.043c0.983,0.364,1.885,0.923,2.648,1.642c0.78,0.719,1.507,1.494,2.173,2.32
	c0.827,0.994,1.642,1.999,2.461,3c3.379,4.133,6.736,8.284,10.071,12.453c3.335,4.168,6.648,8.354,9.938,12.559
	c3.299,4.214,6.574,8.446,9.827,12.695c0.399,0.521,0.797,1.042,1.195,1.563c0.22,0.288,0.715,0.005,0.492-0.287
	c-3.277-4.293-6.577-8.567-9.9-12.824c-3.331-4.268-6.685-8.517-10.062-12.748c-3.377-4.23-6.776-8.443-10.199-12.638
	c-0.853-1.045-1.707-2.089-2.563-3.132c-0.722-0.879-1.436-1.769-2.227-2.587c-1.361-1.64-3.318-2.671-5.44-2.866
	c-1.273,0.044-2.527,0.32-3.701,0.813c-1.279,0.463-2.556,0.935-3.834,1.401l-7.707,2.819l-1.927,0.705
	C245.063,332.329,245.212,332.88,245.557,332.754L245.557,332.754z"/>
<path fill="#FFFFFF" d="M170.046,301.191c-4.005-1.973-8.762-1.633-12.445,0.891c6.817,1.176,13.561,2.749,20.194,4.713
	C175.04,305.18,172.885,302.651,170.046,301.191z"/>
<path fill="#FFFFFF" d="M157.562,302.074l-0.749,0.609c0.254-0.214,0.517-0.413,0.787-0.603L157.562,302.074z"/>
<path fill="#FFFFFF" d="M266.519,332.781c-0.67-0.987-1.604-1.767-2.695-2.249l-1.052,0.041
	c8.009,14.152,18.826,26.519,31.787,36.34L266.519,332.781z"/>
<circle fill="#FFFFFF" cx="261.597" cy="311.227" r="6.059"/>
<path fill="#3F3D56" d="M349.522,378.557c2.483-0.004,4.496-2.016,4.5-4.5v-93c0-2.485-2.015-4.5-4.5-4.5s-4.5,2.015-4.5,4.5v93
	C345.026,376.542,347.038,378.553,349.522,378.557z"/>
<path fill="#2F2E41" d="M349.522,378.557c2.483-0.004,4.496-2.016,4.5-4.5v-19.72c-1.823-2.485-5.315-3.022-7.801-1.199
	c-0.459,0.336-0.863,0.74-1.199,1.199v19.72C345.026,376.542,347.038,378.553,349.522,378.557z"/>
<path fill="#6C63FF" d="M349.522,359.557c2.671-0.004,4.835-2.168,4.839-4.839V333.51c-1.96-2.673-5.716-3.25-8.389-1.29
	c-0.493,0.362-0.929,0.797-1.29,1.29v21.209C344.686,357.389,346.85,359.553,349.522,359.557z"/>
<path fill="#3F3D56" d="M349.522,355.701c1.948-0.003,3.526-1.581,3.529-3.529v-15.469c-1.43-1.95-4.169-2.371-6.119-0.941
	c-0.359,0.264-0.677,0.581-0.94,0.941v15.469C345.995,354.12,347.574,355.698,349.522,355.701z"/>
<path fill="#6C63FF" d="M210.699,483.036c-1.646-1.474-1.787-4-0.317-5.647l39.315-43.992c1.473-1.647,4.001-1.789,5.648-0.317
	c1.647,1.473,1.789,4.001,0.317,5.648l-39.316,43.991C214.874,484.364,212.346,484.506,210.699,483.036z"/>
<path fill="#E6E6E6" d="M536.85,555.467c0,7.29-1.721,12.87-1.511,17.33c-11.794,5.148-23.922,9.498-36.3,13.02
	c-1.399,0.4-2.8,0.78-4.21,1.16c-7.63-23.359-15.27-44.75-18.28-47.02c-6.89-5.17-10.34,16.22-10.34,11.05s3.45-5.17-5.16-12.06
	c-8.619-6.891-3.449-37.9-3.449-37.9l-12.061-31.01l13.49-49.46l17.52-64.25h17.23c0,0,0.51,0.37,1.36,1.06
	c4.31,3.521,17.31,15.28,15.869,28.23c-0.43,3.859,0.53,15.08,2.2,30.02c5.08,45.11,16.75,94.15,16.75,107.09
	C529.96,539.957,536.85,545.127,536.85,555.467z"/>
<path fill="#3F3D56" d="M522.402,415.468c-0.02-0.05-0.03-0.09-0.05-0.13c-0.387-1.04-0.837-2.056-1.351-3.04
	c-2.909-5.47,0.17-13.87-3.109-23.15c-5.3-15.04-11.76-23.909-21.23-31.859c-0.279-0.24-0.56-0.47-0.85-0.71l-0.01-0.01
	c-6.32-5.19-13.94-10.04-23.4-16.08c-1.97-1.261-4.03-2.57-6.17-3.95c-2.76-1.771-2.61-7.67-2.45-13.91
	c0.18-6.93,0.37-14.11-3.03-18.59l-0.22-0.29l-0.35-0.09c-11.657-2.306-23.547-3.223-35.42-2.73h-0.011
	c-5.041,0.188-10.047,0.922-14.93,2.19c-0.36,0.1-0.72,0.199-1.07,0.319c-0.27,0.07-0.54,0.16-0.81,0.25l-0.221,0.08l-0.17,0.16
	c-3.289,3.29-4.05,9.19-4.409,15.34v0.01c-0.07,1.12-0.13,2.24-0.181,3.36c-0.279,5.98-0.54,11.63-2.739,14.08
	c-4.907,5.56-10.839,10.122-17.471,13.44c-10.33,5.1-18.5,4.939-18.62,4.939l-0.949-0.03l-0.09,0.94
	c-6.86,13.07-6.601,46.79-6.811,82.9c-0.01,2.01-0.023,4.029-0.04,6.06c-0.12,16.82-0.439,33.93-1.7,49.521
	c-0.55,6.699-1.26,13.109-2.21,19.1c-4.62,29.17-25.55,4.95-35.56,24.36c0.329,1.908,0.883,3.771,1.649,5.55
	c1.15,0.68,2.33,1.34,3.5,2c5.19,2.89,10.478,5.586,15.86,8.09c0.3,0.14,0.6,0.28,0.899,0.41c9.875,4.568,20.052,8.451,30.461,11.62
	c2.029,0.62,4.06,1.21,6.109,1.77c18.134,5.006,36.806,7.803,55.61,8.33c0.076-0.009,0.153-0.012,0.23-0.01
	c22.239-0.615,44.332-3.8,65.84-9.49c0.3-0.08,0.6-0.16,0.899-0.24c1.41-0.38,2.811-0.76,4.211-1.16
	c12.378-3.521,24.505-7.871,36.3-13.02c0.012,0.439,0.056,0.877,0.13,1.31c0.01,0.142,0.03,0.282,0.06,0.42
	c0.021-0.159,0.04-0.319,0.05-0.479c0.061-0.47,0.11-0.95,0.16-1.43C544.862,491.937,532.152,441.267,522.402,415.468z"/>
<path fill="#FFB6B6" d="M384.968,269.2c14.835,27.127,48.853,37.092,75.979,22.257s37.092-48.852,22.257-75.979
	c-14.835-27.128-48.852-37.092-75.979-22.257c-11.395,6.231-20.269,16.23-25.102,28.285c-0.256,0.641-0.486,1.281-0.717,1.948
	C375.993,238.51,377.29,255.164,384.968,269.2z"/>
<path fill="#2F2E41" d="M431.969,298.083c35.366,0,71.758-28.678,71.758-64.069c0-35.367-25.407-61.814-60.773-61.814
	c-35.393,0-60.14,13.94-60.831,49.308C425.69,231.758,417.259,298.083,431.969,298.083z"/>
<path fill="#2F2E41" d="M563.232,422.748c-0.14,2.109-0.264,4.356-0.37,6.74c-2.12,44.89-0.29,105.319-14.58,138.109
	c-3.2,1.75-6.433,3.424-9.7,5.021c-0.13,0.06-0.25,0.12-0.359,0.18c-0.88,0.43-1.761,0.85-2.641,1.25
	c-0.031,0.027-0.069,0.048-0.109,0.06c-9.664,4.566-19.623,8.479-29.811,11.711c-1.25,0.399-2.51,0.779-3.77,1.159
	c-0.271,0.08-0.54,0.16-0.811,0.24c-19.192,5.676-39.034,8.865-59.04,9.49c-1.039,0.03-2.06,0.05-3.05,0.069
	c-0.35,0.011-0.689,0.021-1.029,0.021c-1.12,0.01-2.23,0.021-3.351,0.021c-2.26,0-4.51-0.034-6.75-0.101
	c-18.805-0.527-37.477-3.324-55.61-8.33c-2.05-0.56-4.08-1.149-6.109-1.77c-10.408-3.169-20.586-7.052-30.46-11.62
	c-0.301-0.13-0.601-0.271-0.9-0.41c-5.38-2.5-10.667-5.196-15.86-8.09c-1.17-0.66-2.35-1.32-3.5-2
	c-0.767-1.778-1.32-3.642-1.649-5.55c-2.271-10.91-4.09-3.55-5.391-26.25c-1.189-20.811-1.949-41.681-2.229-53.61
	c-0.09-3.18-0.12-5.729-0.13-7.47c1.06-7.58,18.1-16.181,42.95-24.351c2.35-0.77,4.779-1.539,7.27-2.3
	c6.72-2.069,13.9-4.1,21.4-6.06c19.1-5,40.31-9.59,61.36-13.38c10.39-1.86,20.739-3.53,30.79-4.95c17.63-2.5,34.31-4.23,48.58-4.94
	c1.369-0.069,2.71-0.13,4.029-0.17c1.42-0.06,2.811-0.1,4.17-0.13C547.133,414.887,561.173,417.027,563.232,422.748z"/>
<path opacity="0.2" enable-background="new    " d="M563.232,422.748c-0.14,2.109-0.264,4.356-0.37,6.74
	c-15.58-16.78-183.42,58.18-254.48,103.21c-1.189-20.811-1.95-41.681-2.229-53.61c-0.09-3.18-0.12-5.73-0.13-7.47
	c1.06-7.58,18.1-16.181,42.95-24.351c2.35-0.77,4.779-1.54,7.27-2.3c6.72-2.069,13.9-4.1,21.4-6.06c19.1-5,40.31-9.59,61.36-13.38
	c10.39-1.86,20.739-3.53,30.789-4.95c17.631-2.5,34.311-4.23,48.58-4.94c1.37-0.069,2.71-0.13,4.03-0.17
	c1.42-0.06,2.811-0.1,4.17-0.13C547.133,414.887,561.173,417.027,563.232,422.748z"/>
<path fill="#FFB6B6" d="M221.901,474.76c5.945,7.496,16.842,8.753,24.338,2.808c0.8-0.635,1.541-1.338,2.217-2.103l56.948,23.39
	l-6.146-31.396l-53.137-17.397c-7.614-5.879-18.553-4.473-24.432,3.142C216.771,459.574,216.858,468.486,221.901,474.76z"/>
<path fill="#3F3D56" d="M411.336,344.02l-0.313-0.033l-33.209,2.411c-8.529,0.619-16.382,4.871-21.561,11.675
	c-1.19,1.559-2.221,3.233-3.075,4.998l-0.009,0.005c-2.862,5.857-3.726,12.493-2.456,18.888l15.635,78.703l-37.619-3.418
	l-13.731,2.347l-16.205-6.538l-33.251,0.566l-0.771,2.548l-6.975,23.124l-0.548,1.816l50.775,31.997l14.721-4.479l6.935,5.327
	l0.333,0.009l13.752,0.271l58.648,1.15l16.031-28.401l2.505-4.453c18.618-41.709,23.213-70.826,21.755-90.885
	c-0.764-10.599-3.214-18.655-6.181-24.728C427.349,348.159,411.981,344.178,411.336,344.02z"/>
</svg>
